<?xml version="1.0" encoding="UTF-8" standalone="no"?><!DOCTYPE svg PUBLIC "-//W3C//DTD SVG 1.1//EN" "http://www.w3.org/Graphics/SVG/1.1/DTD/svg11.dtd"><svg width="100%" height="100%" viewBox="0 0 3381 4167" version="1.1" xmlns="http://www.w3.org/2000/svg" xmlns:xlink="http://www.w3.org/1999/xlink" xml:space="preserve" xmlns:serif="http://www.serif.com/" style="fill-rule:evenodd;clip-rule:evenodd;stroke-linejoin:round;stroke-miterlimit:2;"><rect id="NSB-CREAM" x="0" y="0" width="3380.83" height="4166.67" style="fill:none;"/><clipPath id="_clip1"><rect x="0" y="0" width="3380.83" height="4166.67"/></clipPath><g clip-path="url(#_clip1)"><path d="M1691.71,-0c-907.116,-0 -1690.22,913.095 -1690.22,2083.33c-0,1170.24 783.105,2083.33 1690.22,2083.33c907.116,-0 1690.22,-913.095 1690.22,-2083.33c0,-1170.24 -783.105,-2083.33 -1690.22,-2083.33Z" style="fill:#fffde6;"/><path d="M1791.19,3961.26c422.469,-36.093 801.192,-298.147 1056.04,-694.243l31.928,31.922c17.63,17.63 15.52,57.044 -5.89,87.219c-287.445,405.101 -704.504,660.54 -1160.12,668.635l-0,-44.734c-0,-24.71 35.032,-45.126 78.041,-48.799m-200.739,-0c43.01,3.673 78.036,24.089 78.036,48.799l-0,44.734c-455.608,-8.095 -872.668,-263.534 -1160.11,-668.629c-21.41,-30.175 -23.521,-69.589 -5.89,-87.219l31.922,-31.923c254.853,396.096 633.575,658.145 1056.04,694.238m11.132,-3756.76c-418.377,31.749 -794.699,285.083 -1051.55,671.231c-6.833,10.272 -19.327,11.595 -28.048,2.875l-48,-48c288.008,-434.048 720.381,-710.316 1194.5,-718.746l-0,44.735c-0,24.703 -30.007,45.103 -66.904,47.905m1230.03,671.237c-256.857,-386.154 -633.179,-639.488 -1051.55,-671.237c-36.896,-2.802 -66.909,-23.202 -66.909,-47.905l-0,-44.735c474.126,8.43 906.499,284.704 1194.51,718.751l-48,47.995c-8.726,8.72 -21.214,7.397 -28.048,-2.869m68.774,25.306l32.09,-32.084c201.554,319.568 326.485,719.499 336.277,1158.54c0.413,18.495 -14.476,33.491 -32.972,33.491l-55.939,-0c-3.657,-395.924 -104.185,-760.723 -271.997,-1060.45c-21.092,-37.667 -25.184,-81.777 -7.459,-99.502m368.367,1238.11c-9.737,436.627 -133.344,834.571 -332.955,1153.26l-32.118,-32.118c-17.731,-17.731 -13.75,-61.918 7.213,-99.652c165.981,-298.694 265.315,-661.467 268.949,-1054.98l55.939,-0c18.496,-0 33.385,15 32.972,33.496m-439.044,940.8c155.172,-291.593 238.701,-635.948 238.701,-996.627c0,-362.963 -84.595,-709.406 -241.666,-1002.17c-20.405,-38.035 -27.69,-78.778 -14.476,-91.998l23.933,-23.922c187.195,309.15 299.202,696.331 299.202,1118.09c0,419.32 -110.706,804.474 -295.953,1112.74l-23.955,-23.956c-13.231,-13.231 -6.063,-54.052 14.214,-92.154m193.492,-951.965c-18.367,931.169 -608.944,1681.38 -1332.38,1681.38c-723.435,-0 -1314.01,-750.21 -1332.37,-1681.38c-0.245,-12.327 9.67,-22.331 22.002,-22.331l591.543,-0l-0,-44.662l-591.543,-0c-12.332,-0 -22.247,-10.005 -22.002,-22.331c18.368,-931.17 608.939,-1681.37 1332.37,-1681.37c723.435,-0 1314.01,750.204 1332.38,1681.37c0.246,12.326 -9.669,22.331 -22.002,22.331l-595.785,-0l-0,44.662l595.785,-0c12.333,-0 22.248,10.004 22.002,22.331m-248.371,-1257.44c21.081,30.409 26.49,66.39 13.36,79.521l-23.772,23.777c-30.498,-48.565 -63.079,-95.421 -97.821,-140.244c-260.424,-335.959 -606.956,-520.977 -975.775,-520.977c-368.813,-0 -715.351,185.018 -975.77,520.977c-34.747,44.823 -67.322,91.679 -97.821,140.244l-23.771,-23.777c-13.131,-13.131 -7.721,-49.112 13.359,-79.521c265.923,-383.674 654.857,-624.916 1084,-624.916c429.151,-0 818.085,241.242 1084.01,624.916m-2229.38,94.678l23.927,23.928c13.215,13.22 5.935,53.957 -14.47,91.992c-153.833,286.753 -238.065,625.017 -241.46,979.846c-0.223,-0 -0.223,44.662 -0.223,44.662c3.869,381.028 100.724,742.952 276.882,1042.49l-47.906,47.917c-185.252,-308.263 -295.958,-693.422 -295.958,-1112.74c0,-421.76 112.007,-808.947 299.208,-1118.1m-67.485,2295.07l-32.117,32.117c-199.611,-318.685 -323.219,-716.635 -332.961,-1153.26c-0.408,-18.496 14.476,-33.496 32.977,-33.496l55.939,-0c3.635,393.516 102.969,756.295 268.949,1054.99c20.969,37.733 24.95,81.915 7.213,99.652m-365.078,-1232.79c9.798,-439.045 134.729,-838.982 336.288,-1158.55c0,-0 14.37,14.364 32.084,32.089c17.725,17.72 13.633,61.835 -7.458,99.496c-167.812,299.732 -268.346,664.531 -271.998,1060.45l-55.939,-0c-18.501,-0 -33.385,-14.996 -32.977,-33.491m477.241,1183.79c0,-0 5.326,-5.326 11.903,-11.903c6.571,-6.57 17.172,-3.399 23.821,6.985c27.992,43.735 57.698,86.035 89.196,126.672c260.419,335.953 606.957,520.977 975.77,520.977c368.819,-0 715.357,-185.024 975.775,-520.977c31.493,-40.637 61.21,-82.937 89.196,-126.672c6.649,-10.39 17.251,-13.561 23.827,-6.985l11.897,11.897c13.142,13.148 7.827,49.201 -13.147,79.683c-266.007,386.644 -656.493,630.047 -1087.55,630.047c-431.05,-0 -821.535,-243.403 -1087.54,-630.047c-20.975,-30.482 -26.289,-66.53 -13.148,-79.677m1100.69,-3144.31c-875.253,-0 -1623.22,887.199 -1623.22,2016.34c0,1129.14 747.971,2016.34 1623.22,2016.34c875.263,-0 1623.23,-887.2 1623.23,-2016.34c0,-1129.14 -747.966,-2016.34 -1623.23,-2016.34" style="fill:#aba07f;fill-rule:nonzero;"/><path d="M670.36,2157.86c-0.19,0.022 -0.379,0.05 -0.575,0.078c-0.005,-0.832 -0.005,-1.658 -0.017,-2.495c0.207,0.804 0.391,1.608 0.592,2.417m126.729,-334.256c8.714,22.337 15.994,53.22 20.114,89.263c-31.749,-47.448 -72.285,-86.98 -107.624,-121.341c-5.186,-5.047 -10.261,-9.982 -15.191,-14.828c-83.691,-82.318 -107.177,-137.704 -96.643,-227.944c4.601,-39.42 25.329,-67.557 38.722,-82.005c7.007,-7.553 9.061,-18.457 5.566,-28.143c-0.374,-1.038 -0.748,-2.082 -1.127,-3.12c-4.026,-11.127 -17.301,-19.428 -29.41,-17.112c-38.493,7.342 -116.54,31.973 -150.187,112.822c-41.609,99.993 -38.332,196.865 10.339,293.318c-17.095,23.381 -41.614,62.231 -58.842,112.163c-20.232,58.636 -32.726,141.244 1.2,232.79c4.287,11.561 7.542,22.135 6.481,23.933c-0.642,1.083 -1.272,2.166 -1.903,3.277c-2.345,4.148 -4.539,8.329 -6.605,12.55c-3.774,7.721 -10.367,13.633 -18.428,16.631c-36.177,13.454 -72.989,28.812 -111.32,46.337c-0,-0 -4.589,2.099 -10.25,4.689c-5.667,2.585 -6.013,13.734 -0.776,24.905l35.244,75.172c-19.691,13.136 -39.47,27.355 -59.518,43.031c-0,0 -3.467,2.714 -7.738,6.058c-4.282,3.349 -2.629,14.654 3.679,25.251l177.085,297.387l20.171,-17.586c57.256,-49.932 113.151,-88.86 173.037,-119.286c43.322,15.777 90.033,24.274 137.771,24.274c9.714,-0 19.489,-0.347 29.265,-1.061l7.029,-42.865c-0.386,-0.156 -24.291,-10.289 -55.873,-27.924c50.362,-15.571 104.816,-27.244 165.842,-35.864l23.241,-3.288l-4.439,-23.046c-0.067,-0.352 -3.405,-17.697 -8.508,-43.69c0.022,-0.034 0.034,-0.045 0.062,-0.073l25.797,-0.837l-0.201,-21.823c-0.005,-0.67 -0.636,-67.915 -2.076,-134.299c-0.162,-7.414 -0.324,-14.532 -0.497,-21.365c-0.285,-11.797 4.756,-29.834 10.54,-40.726c6.616,-12.483 12.801,-25.966 18.473,-40.581c54.449,-140.239 13.036,-248.745 -31.297,-315.074c-32.05,-47.95 -69.711,-80.794 -91.573,-97.553c-9.787,-7.503 -25.151,-6.13 -33.715,2.261c-8.564,8.385 -10.406,23.833 -5.917,35.322" style="fill:#fffde6;fill-rule:nonzero;"/><path d="M917.956,2182.48c-26.34,67.847 -70.22,136.972 -189.898,157.137c55.42,-51.339 95.611,-121.212 117.841,-205.836c24.922,-94.873 23.783,-197.383 8.229,-272.443c56.017,59.093 123.066,168.571 63.828,321.142m-236.201,351.021c-4.952,-3.417 -9.904,-6.951 -14.805,-10.608c-8.201,-6.113 -15.632,-12.097 -22.454,-17.97c60.115,-19.802 121.525,-33.229 184.705,-40.565c18.373,-2.132 34.49,2.652 35.931,9.977c0.865,4.427 1.736,8.854 2.59,13.275c-68.802,10.842 -129.687,25.687 -185.967,45.891m-120.604,3.282c11.981,-5.22 24.011,-10.155 36.081,-14.85c24.391,24.006 52.763,44.858 79.437,61.796c-41.63,-8.749 -80.883,-24.793 -115.518,-46.946m-253.468,-106.452c9.831,-6.984 22.203,-3.394 27.439,7.772l81.972,174.846l21.209,-12.734c15.38,-9.234 30.816,-17.977 46.303,-26.262c16.313,-8.726 39.766,-7.749 52.824,0.559c7.86,4.996 15.927,9.719 24.179,14.163c-44.456,25.279 -87.27,55.403 -130.508,91.429l-141.06,-236.888c5.896,-4.421 11.775,-8.703 17.642,-12.885m370.856,-228.418c1.039,9.011 1.681,17.949 1.809,26.781c-47.146,-4.612 -95.13,17.691 -122.452,58.127c-16.943,25.084 -49.429,93.941 14.761,191.483l2.702,4.109c-46.845,18.551 -93.02,40.838 -138.726,67.01l-115.272,-245.87c123.071,-54.51 231.505,-86.203 357.178,-101.64m-182.734,-334.312c9.066,36.534 22.8,75.407 43.021,112.772c-4.305,59.177 -30.583,92.701 -63.03,134.092c-7.441,9.496 -15.302,19.551 -23.274,30.376c-40.765,-120.738 8.469,-224.304 43.283,-277.24m139.591,295.132c-57.62,8.749 -112.275,21.114 -166.98,37.757c13.895,-21.885 28.394,-40.447 42.524,-58.469c36.193,-46.163 68.829,-87.872 72.754,-163.083c12.271,16.665 24.52,35.484 35.998,55.783c15.838,41.53 24.849,86.695 15.704,128.012m34.965,-4.879c-0.19,0.022 -0.38,0.05 -0.575,0.078c-0.006,-0.832 -0.011,-1.658 -0.023,-2.495c0.213,0.804 0.397,1.608 0.598,2.417m-51.964,308.715l-8.43,-12.818c-34.792,-52.869 -40.286,-104.604 -15.068,-141.919c18.306,-27.093 50.339,-42.021 81.592,-38.694c-5.226,26.395 -15.989,50.92 -33.971,72.084c-3.875,4.562 -4.762,10.948 -2.423,16.453l3.902,9.178c4.997,11.757 16.648,19.355 29.416,18.976c71.498,-2.15 150.661,-16.687 213.227,-76.981c0.698,33.725 1.256,69.332 1.625,101.578c-93.444,4.941 -182.919,22.242 -269.87,52.143m-115.854,-918.217c15.721,-37.779 44.975,-59.501 72.135,-71.951c-9.842,18.155 -18.194,40.581 -21.293,67.166c-12.298,105.352 15.381,172.211 109.685,264.963c4.985,4.908 10.127,9.898 15.369,15.001c55.085,53.572 118.946,115.792 140.702,199.237c-2.445,32.525 -7.659,66.251 -16.441,99.669c-12.824,48.821 -37.014,109.539 -82.502,161.275c27.434,-133.696 -66.58,-297.31 -129.425,-366.938c-112.794,-124.964 -140.83,-242.029 -88.23,-368.422m294.546,275.246c8.715,22.337 15.995,53.22 20.115,89.263c-31.749,-47.448 -72.286,-86.98 -107.624,-121.341c-5.187,-5.053 -10.267,-9.982 -15.191,-14.834c-83.691,-82.312 -107.178,-137.704 -96.643,-227.943c4.6,-39.415 25.329,-67.552 38.722,-82c7.001,-7.559 9.061,-18.456 5.566,-28.148c-0.374,-1.033 -0.754,-2.077 -1.128,-3.115c-4.025,-11.127 -17.301,-19.428 -29.415,-17.117c-38.488,7.347 -116.535,31.972 -150.182,112.827c-41.614,99.993 -38.331,196.865 10.339,293.318c-17.094,23.375 -41.613,62.231 -58.842,112.163c-20.232,58.636 -32.726,141.244 1.2,232.79c4.288,11.562 7.543,22.135 6.482,23.933c-0.642,1.077 -1.273,2.166 -1.904,3.277c-2.344,4.148 -4.538,8.329 -6.604,12.55c-3.78,7.721 -10.367,13.628 -18.429,16.631c-36.182,13.454 -72.989,28.813 -111.32,46.337c0,-0 -4.589,2.099 -10.25,4.689c-5.666,2.585 -6.012,13.734 -0.776,24.905l35.244,75.172c-19.696,13.136 -39.47,27.35 -59.518,43.032c0,-0 -3.466,2.713 -7.743,6.057c-4.276,3.35 -2.624,14.655 3.685,25.245l177.085,297.393l20.17,-17.585c57.257,-49.933 113.151,-88.861 173.037,-119.287c43.323,15.777 90.034,24.274 137.772,24.274c9.714,-0 19.489,-0.352 29.264,-1.061l7.029,-42.864c-0.385,-0.162 -24.29,-10.289 -55.872,-27.925c50.362,-15.571 104.816,-27.244 165.841,-35.864l23.241,-3.288l-4.438,-23.046c-0.067,-0.351 -3.406,-17.697 -8.508,-43.69c0.022,-0.034 0.033,-0.045 0.061,-0.078l25.798,-0.832l-0.201,-21.823c-0.006,-0.67 -0.642,-67.914 -2.077,-134.299c-0.162,-7.414 -0.324,-14.532 -0.497,-21.365c-0.29,-11.796 4.757,-29.834 10.535,-40.726c6.621,-12.483 12.807,-25.966 18.479,-40.581c54.448,-140.245 13.03,-248.745 -31.297,-315.074c-32.051,-47.95 -69.712,-80.794 -91.574,-97.559c-9.786,-7.497 -25.15,-6.124 -33.714,2.267c-8.57,8.385 -10.406,23.833 -5.918,35.322" style="fill:#aba07f;fill-rule:nonzero;"/><path d="M3109.66,2276.88l-10.25,-4.689c-39.928,-18.256 -78.209,-34.166 -115.836,-48.017c-5.416,-1.993 -9.714,-6.069 -12.176,-11.294c-2.563,-5.449 -5.315,-10.864 -8.335,-16.207c-1.257,-2.227 -2.541,-4.338 -3.808,-6.498c44.176,-99.753 31.331,-190.478 9.58,-253.502c-17.234,-49.949 -41.748,-88.788 -58.842,-112.157c48.67,-96.459 51.959,-193.325 10.345,-293.318c-28.137,-67.618 -87.326,-95.912 -128.465,-107.663c-23.715,-6.772 -47.102,0.815 -51.143,11.919c-4.037,11.11 8.686,32.832 21.867,53.678c9.541,15.101 18.44,35.099 21.298,59.613c10.535,90.234 -12.946,145.62 -96.637,227.943c-4.924,4.841 -9.999,9.781 -15.185,14.823c-35.3,34.328 -75.825,73.77 -107.563,121.145c2.931,-25.647 7.464,-48.687 12.98,-67.875c6.811,-23.71 9.714,-48.123 1.15,-56.508c-8.564,-8.386 -32.341,-4.26 -51.038,11.835c-21.555,18.563 -49.569,46.532 -74.256,83.462c-44.327,66.329 -85.74,174.83 -31.291,315.068c4.204,10.825 8.681,21.03 13.41,30.666c8.145,16.587 15.888,38.851 15.598,50.647c-0.168,6.822 -0.329,13.951 -0.497,21.365c-1.429,66.385 -2.071,133.623 -2.077,134.299l-0.201,21.823l25.876,0.832c-5.102,26.021 -8.458,43.417 -8.519,43.768l-4.438,23.046l23.241,3.288c61.014,8.62 115.485,20.277 165.847,35.841c-31.56,17.62 -55.499,27.786 -55.884,27.953l7.034,42.854c9.787,0.714 19.546,1.066 29.265,1.066c47.761,-0 94.499,-8.508 137.844,-24.291c59.864,30.426 115.719,69.383 172.965,119.298l20.17,17.591l177.085,-297.393c6.314,-10.59 7.961,-21.901 3.685,-25.245l-7.749,-6.057c-20.042,-15.682 -39.822,-29.907 -59.512,-43.043l35.238,-75.161c5.237,-11.171 4.89,-22.32 -0.776,-24.905" style="fill:#fffde6;fill-rule:nonzero;"/><path d="M2819.97,2588.78c8.257,-4.444 16.335,-9.178 24.202,-14.191c13.069,-8.324 36.533,-9.335 52.851,-0.614c15.493,8.279 30.934,17.01 46.315,26.244l21.209,12.734l91.456,-195.072c11.825,7.994 23.682,16.397 35.596,25.34l-141.054,236.882c-43.249,-36.031 -86.102,-66.055 -130.575,-91.323m-115.004,-5.047c76.383,-48.508 167.058,-128.85 136.615,-224.728c-10.897,-34.311 -27.059,-59.434 -42.686,-83.724c-17.853,-27.758 -36.31,-56.453 -50.121,-102.65c-13.126,-43.909 -3.936,-93.02 13.164,-137.877c11.483,-20.31 23.732,-39.135 36.008,-55.806c3.931,75.206 36.562,116.909 72.755,163.078c17.887,22.811 36.388,46.41 53.488,76.64c10.705,18.926 18.269,38.701 22.71,58.914c12.058,54.881 1.091,112.995 -32.541,166.138c-45.366,71.671 -122.257,121.704 -209.392,140.015m-188.452,-109.449c1.435,-7.359 17.564,-12.16 35.937,-10.027c63.174,7.364 124.579,20.879 184.694,40.698c-6.661,5.728 -13.924,11.562 -21.874,17.508c-5.119,3.829 -10.289,7.525 -15.458,11.093c-56.269,-20.204 -117.098,-35.105 -185.895,-45.941c0.86,-4.438 1.725,-8.882 2.596,-13.331m225.761,-114.318c1.898,-4.461 1.234,-9.692 -1.959,-13.343c-38.225,-43.853 -45.12,-102.416 -34.675,-162.475c0.123,0.43 0.223,0.854 0.346,1.273c15.615,52.254 36.724,85.064 55.342,114.016c15.336,23.839 28.578,44.433 37.684,73.09c7.296,22.967 6.185,56.112 -26.959,97.078c-89.71,-31.816 -182.082,-50.072 -278.68,-55.174c0.368,-32.252 0.927,-67.858 1.63,-101.584c63.459,61.159 144.001,75.244 216.298,77.064c10.914,0.28 20.868,-6.18 25.145,-16.234l5.828,-13.711Zm-214.763,-498.629c-9.206,44.433 -13.253,98.518 -9.931,154.904c-11.953,49.274 -11.411,105.358 9.943,169.995c23.107,69.924 58.825,116.339 93.578,146.938c-63.51,-17.535 -121.621,-58.491 -157.417,-150.69c-59.233,-152.571 7.821,-262.065 63.827,-321.147m175.701,-37.807c5.236,-5.097 10.372,-10.093 15.358,-15.001c94.304,-92.757 121.989,-159.622 109.679,-264.963c-3.093,-26.573 -11.44,-49.005 -21.287,-67.16c27.16,12.45 56.408,34.166 72.134,71.95c52.606,126.383 24.564,243.459 -88.235,368.423c-67.842,75.172 -172.155,259.916 -120.604,398.251c-34.775,-24.754 -75.658,-68.154 -100.328,-142.807c-54.789,-165.796 49.491,-267.213 133.283,-348.693m182.472,44.662c34.289,53.226 82.77,156.943 43.233,276.369c-7.9,-10.714 -15.693,-20.684 -23.068,-30.097c-32.47,-41.402 -58.725,-74.965 -63.007,-134.187c20.081,-37.125 33.781,-75.747 42.842,-112.085m106.318,406.955c22.387,8.698 45.064,18.121 68.277,28.405l-115.273,245.87c-13.661,-7.816 -27.383,-15.141 -41.134,-22.253c18.267,-17.982 34.507,-37.896 48.224,-59.568c38.806,-61.31 52.149,-128.398 39.906,-192.454m117.656,1.736l-10.25,-4.689c-39.933,-18.262 -78.208,-34.167 -115.836,-48.023c-5.415,-1.988 -9.72,-6.063 -12.176,-11.289c-2.563,-5.454 -5.315,-10.864 -8.335,-16.206c-1.262,-2.228 -2.54,-4.338 -3.813,-6.499c44.176,-99.758 31.336,-190.483 9.585,-253.507c-17.234,-49.943 -41.747,-88.782 -58.842,-112.152c48.671,-96.458 51.959,-193.325 10.345,-293.317c-28.137,-67.619 -87.325,-95.912 -128.465,-107.664c-23.715,-6.772 -47.107,0.81 -51.143,11.919c-4.037,11.11 8.681,32.833 21.867,53.679c9.541,15.095 18.435,35.093 21.299,59.612c8.143,69.751 -4.039,118.679 -48.645,175.323c-13.099,16.634 -28.995,33.933 -47.993,52.621c-4.924,4.84 -9.999,9.781 -15.185,14.817c-35.3,34.333 -75.825,73.776 -107.568,121.151c2.936,-25.647 7.469,-48.687 12.98,-67.881c6.816,-23.71 9.719,-48.118 1.15,-56.503c-8.564,-8.391 -32.336,-4.259 -51.032,11.83c-21.555,18.568 -49.57,46.532 -74.256,83.468c-44.328,66.328 -85.74,174.829 -31.292,315.068c4.204,10.825 8.676,21.03 13.41,30.66c8.145,16.592 15.888,38.851 15.598,50.653c-0.167,6.822 -0.335,13.951 -0.497,21.365c-1.434,66.379 -2.071,133.623 -2.076,134.293l-0.201,21.828l25.876,0.832c-5.103,26.021 -8.458,43.412 -8.525,43.769l-4.439,23.046l23.241,3.288c61.02,8.62 115.491,20.276 165.847,35.841c-31.554,17.619 -55.492,27.785 -55.878,27.947l7.029,42.859c9.787,0.715 19.545,1.066 29.27,1.066c47.755,0 94.494,-8.508 137.844,-24.29c59.864,30.426 115.719,69.382 172.959,119.298l20.176,17.591l177.08,-297.393c6.314,-10.591 7.961,-21.901 3.69,-25.245l-7.749,-6.058c-20.042,-15.682 -39.822,-29.907 -59.512,-43.043l35.233,-75.16c5.242,-11.171 4.89,-22.32 -0.771,-24.905" style="fill:#aba07f;fill-rule:nonzero;"/><path d="M2439.31,2079.88c52.88,-109.908 82.318,-233.097 81.76,-363.036c-1.999,-458.667 -376.769,-830.199 -835.437,-828.212c-458.667,1.993 -830.205,376.769 -828.212,835.437c0.564,129.949 31.079,252.893 84.919,362.348c-54.264,112.677 -82.323,236.195 -81.77,363.403c1.987,458.668 376.763,830.2 835.436,828.207c458.673,-1.987 830.2,-376.763 828.212,-835.431c-0.552,-126.616 -28.851,-248.108 -84.121,-361.114l-0.787,-1.602Z" style="fill:#fffde6;fill-rule:nonzero;"/><path d="M1045.59,1997.71c79.453,-114.307 186.173,-204.485 310.735,-263.31c22.303,-10.535 52.78,-1.636 71.091,14.894c19.97,18.027 43.948,33.938 72.001,47.8l-45.902,51.043c-27.701,-32.246 -43.31,-56.492 -43.768,-57.223l-6.577,-10.401l-51.389,0l0,195.24c-150.455,109.165 -240.265,285.011 -240.265,470.464c0,320.299 260.586,580.885 580.885,580.885c320.3,0 580.886,-260.586 580.886,-580.885c-0,-39.967 -4.087,-79.9 -12.16,-118.678l-0.111,-0.542c44.075,-41.345 83.668,-87.403 117.946,-137.391c20.925,-30.515 47.906,-29.287 59.741,5.761c27.127,80.342 40.866,164.351 40.866,250.85c0,434.048 -353.12,787.168 -787.168,787.168c-434.047,-0 -787.167,-353.12 -787.167,-787.168c-0,-161.319 48.536,-316.413 140.356,-448.507m306.191,138.575l-82.898,92.289c-15.677,-13.125 -30.845,-27.038 -45.449,-41.72c32.419,-58.586 75.769,-111.248 128.347,-154.62l0,104.051Zm55.694,4.829l82.808,-49.357c14.527,-8.664 32.492,-9.022 47.387,-1.016c2.227,1.2 4.55,2.423 6.967,3.668l-123.82,140.244l27.043,12.64c76.763,35.863 159.036,54.052 244.541,54.052c320.3,-0 580.886,-260.586 580.886,-580.885c-0,-109.367 -30.594,-215.83 -88.481,-307.889l-15.889,-25.268l-133.584,151.304l-0.458,-95.951l148.406,-165.221c110.611,122.441 176.198,286.3 170.313,465.199c-11.517,350.407 -298.621,633.095 -649.167,639.275c-145.9,2.568 -284.894,-41.725 -400.256,-125.79l103.304,-115.005Zm206.768,-17.206l-0,127.108c-41.123,-5.99 -81.19,-16.726 -119.851,-32.207l92.68,-104.983c8.508,3.433 17.58,6.822 27.171,10.082m111.655,24.525l-0,107.167c-11.082,0.686 -22.242,1.083 -33.497,1.083c-11.232,-0 -22.386,-0.469 -33.496,-1.145l-0,-118.65c20.734,5.025 43.132,9.089 66.993,11.545m154.363,-201.163c-0,-32.229 -7.648,-68.417 -60.098,-97.464l88.95,-100.752c16.329,-18.495 47.062,-23.402 65.212,-6.693c39.816,36.662 58.702,83.534 58.702,144.42c0,203.77 -196.613,219.609 -256.873,219.609c-144.688,-0 -246.908,-72.76 -247.891,-73.475l-11.919,-8.687l-119.901,71.471l0,-246.68c17.725,23.012 44.656,54.862 79.398,86.896c86.974,80.174 181.651,122.558 273.789,122.558c96.314,-0 130.631,-57.441 130.631,-111.203m-111.828,-382.525l2.127,0l-0,-2.372l58.831,-65.419c20.561,13.812 39.436,29.254 56.375,44.869l-348.347,387.805c-19.897,-15.832 -37.835,-32.441 -53.556,-48.447l284.57,-316.436Zm-154.19,-103.738l-0,93.879c-17.295,-16.234 -19.568,-33.117 -19.568,-49.53c0,-19.428 6.577,-34.25 19.568,-44.349m-0,-101.121l-0,50.608c-40.961,15.788 -64.23,49.809 -64.23,94.862c0,58.256 31.029,95.13 102.846,121.107l-122.212,135.912c-91.423,-41.458 -134.204,-102.846 -134.204,-192.828c0,-157.473 113.67,-201.956 217.8,-209.661m111.655,89.665l-0,95.688l-40.497,45.036l-2.099,-0.658c-9.033,-2.82 -17.1,-5.689 -24.397,-8.615l-0,-395.694c11.087,-0.686 22.247,-1.072 33.496,-1.072c11.222,0 22.382,0.402 33.497,1.083l-0,263.629l-0.173,0.553l0.173,0.05Zm44.662,-119.236l-0,-140.384c73.324,10.708 143.337,36.444 206.377,76.16l-97.379,108.288c-20.417,-11.483 -58.597,-30.409 -108.998,-44.064m19.484,143.599l-19.484,21.667l-0,-30.677c6.615,2.769 13.097,5.806 19.484,9.01m-19.484,-56.899l-0,-40.207c61.103,18.389 100.154,44.304 100.556,44.578l10.904,7.392l107.864,-54.84l1.027,214.981l-0.748,0.848c-38.119,-49.435 -116.518,-136.33 -219.603,-172.752m-44.662,539.567l-0,56.123c-14.705,-1.328 -29.075,-3.841 -43.06,-7.347l43.06,-48.776Zm109.701,-9.312c-0,22.314 -9.039,58.189 -65.039,65.279l-0,-106.563l19.104,-21.639c42.261,20.098 45.935,40.436 45.935,62.923m-198.724,42.669c-22.336,-9.396 -43.428,-21.053 -63.101,-33.96l343.668,-382.591c17.859,19.193 32.252,37.058 42.479,50.63l-323.046,365.921Zm449.942,93.394c-81.357,88.358 -191.94,149.4 -316.257,167.633l-0,-99.987c1.865,0.022 3.712,0.073 5.594,0.073c99.892,-0 204.446,-32.62 260.385,-115.831c17.781,14.911 34.557,31.04 50.278,48.112m-9.128,-196.552c0,-43.808 -8.502,-82.189 -25.664,-115.585c-11.271,-21.941 -6.258,-28.897 15.426,-17.128c51.366,27.891 99.562,61.538 144.135,100.713c-18.535,71.609 -51.551,137.441 -95.694,194.218c-18.082,-19.266 -37.494,-37.299 -57.994,-53.935c12.623,-30.739 19.791,-66.619 19.791,-108.283m55.046,-391.016c16.33,-18.496 39.42,-16.039 49.486,6.476c30.504,68.232 46.404,142.466 46.404,218.219c-0,28.745 -2.301,56.96 -6.677,84.494c-72.029,-59.634 -152.482,-106.167 -239.807,-138.614l5.8,-6.571l47.978,0l-0.262,-54.041l97.078,-109.963Zm-1044.92,379.393c-16.915,17.948 -35.595,14.152 -40.988,-9.921c-10.602,-47.286 -15.984,-95.755 -15.984,-144.777c0,-364.783 296.774,-661.562 661.556,-661.562c178.47,0 340.637,71.068 459.757,186.352l-117.607,130.927l-0.245,-52.389l-49.184,0l59.216,-65.854l-20.723,-14.459c-97.425,-67.97 -211.949,-103.901 -331.214,-103.901c-320.299,0 -580.885,260.581 -580.885,580.886c0,40.05 4.143,79.911 12.243,118.817c-12.332,11.573 -24.313,23.537 -35.942,35.881m286.133,-197.39c-76.807,31.872 -147.77,74.703 -211.112,127.092c-4.399,-27.814 -6.66,-56.057 -6.66,-84.4c0,-269.134 199.304,-492.561 458.065,-530.512l-0,125.187c-49.642,3.473 -112.677,15.548 -164.245,50.211c-65.173,43.808 -98.217,112.515 -98.217,204.201c0,40.441 7.364,76.428 22.169,108.221m-217.772,768.449c0,-14.18 0.581,-28.299 1.72,-42.328c1.887,-23.331 20.427,-29.226 40.257,-14.555c142.595,105.526 315.453,162.955 494.246,162.955c177.001,0 341.268,-55.576 476.27,-150.187c30.298,-21.237 56.425,-21.8 58.273,1.619c1.122,14.119 1.681,28.305 1.681,42.496c-0,295.674 -240.55,536.223 -536.224,536.223c-295.673,0 -536.223,-240.549 -536.223,-536.223m536.223,-1512.92c434.048,-0 787.168,353.12 787.168,787.168c0,434.047 -353.12,787.167 -787.168,787.167c-191.242,0 -375.322,-69.438 -518.967,-195.552c7.42,-28.511 17.134,-56.325 29.059,-83.144c132.316,127.655 305.599,197.746 489.908,197.746c389.408,0 706.218,-316.809 706.218,-706.217c0,-389.414 -316.81,-706.224 -706.218,-706.224c-389.408,0 -706.218,316.81 -706.218,706.224c0,76.215 12.098,151.214 35.965,222.919l2.4,7.207c-5.298,7.129 -10.54,14.309 -15.632,21.633c-6.939,9.982 -13.616,20.098 -20.053,30.337c-10.696,16.999 -31.006,3.763 -42.842,-31.291c-27.087,-80.264 -40.787,-164.234 -40.787,-250.805c-0,-434.048 353.125,-787.168 787.167,-787.168m748.508,1149.85c53.348,-109.673 83.322,-232.739 83.322,-362.677c0,-458.674 -373.151,-831.83 -831.83,-831.83c-458.667,-0 -831.829,373.156 -831.829,831.83c-0,127.275 28.07,249.247 83.277,362.772c-54.727,112.454 -83.277,235.883 -83.277,362.985c-0,458.673 373.156,831.83 831.829,831.83c458.679,-0 831.83,-373.157 831.83,-831.83c0,-126.617 -27.768,-248.231 -82.552,-361.472l-0.77,-1.608Z" style="fill:#aba07f;fill-rule:nonzero;"/><path d="M1620.39,2246.41l97.799,-24.548c11.964,-3.009 31.174,-2.367 42.909,1.418l96.397,31.135c11.735,3.785 31.208,5.951 43.49,4.835l56.587,-5.142c12.282,-1.116 25.111,7.548 28.656,19.367l27.439,91.479c3.545,11.818 1.563,30.13 -4.427,40.91l-23.727,42.708c-5.984,10.78 -17.915,26.591 -26.635,35.311l-4.427,4.422c-8.715,8.725 -7.107,20.751 3.606,26.869l26.329,15.04c10.707,6.119 12.315,18.15 3.595,26.864l-48.743,48.749c-8.726,8.72 -5.801,15.369 6.532,15.302c34.2,-0.173 69.516,2.429 93.985,11.16c59.15,21.125 105.592,70.259 130.229,109.065c6.61,10.412 17.519,11.785 27.06,3.969c16.039,-13.136 43.601,-30.375 80.52,-33.675c26.177,-2.345 59.127,2.518 96.19,25.776c10.446,6.559 27.663,9.234 38.789,3.908c8.079,-3.869 16.548,-8.33 25.441,-13.393c30.214,-17.234 57.324,-20.785 80.766,-18.016c35.355,4.176 64.609,24.045 85.667,50.055c15.995,19.757 29.337,51.92 37.042,73.084c4.22,11.59 3.243,30.381 -2.167,41.468c-23.363,47.839 -54.018,87.348 -101.622,111.968c-10.954,5.672 -15.632,18.021 -10.686,29.321c26.016,59.456 35.495,129.051 24.938,183.237c-6.124,31.408 -8.474,75.093 24.017,95.158l127.695,67.238c10.914,5.751 17.758,20.21 15.291,32.291l-42.959,210.324c-2.468,12.087 -14.32,20.177 -26.474,18.066l-135.75,-23.52c-12.154,-2.105 -22.409,-13.806 -22.906,-26.127l-0.614,-15.414c-0.497,-12.321 -6.8,-14.236 -14.069,-4.276l-44.131,60.377c-7.275,9.96 -10.747,27.729 -7.755,39.693l18.669,74.698c2.998,11.958 -4.584,21.655 -16.916,21.655l-164.183,0c-12.332,0 -24.905,-9.658 -28.081,-21.577l-30.549,-114.558c-3.177,-11.914 -0.849,-30.292 5.198,-41.039l25.116,-44.662c6.046,-10.747 2.066,-24.056 -8.597,-30.253c-10.859,-6.309 -20.545,-12.589 -26.44,-17.742c-18.066,-15.816 -37.561,-41.776 -49.832,-59.334c-7.067,-10.11 -20.873,-13.102 -31.905,-7.603c-40.754,20.31 -82.725,25.887 -116.64,25.753c-12.333,-0.05 -28.913,6.61 -37.706,15.258c-34.937,34.367 -74.15,58.172 -110.176,76.388c-11.009,5.566 -10.233,11.557 1.904,13.751l35.501,6.42c12.136,2.194 17.049,12.673 10.975,23.403l-104.615,184.755c-6.08,10.736 -19.835,14.75 -30.727,8.961l-115.597,-61.349c-10.897,-5.784 -27.288,-17.056 -35.4,-26.345c-17.329,-19.836 -44.282,-58.033 -55.537,-113.319c-2.462,-12.087 3.294,-20.963 11.679,-19.623c8.38,1.345 5.203,3.165 -7.096,4.064l-173.757,12.706c-12.299,0.899 -24.112,-8.201 -26.39,-20.321l-16.698,-89.061c-2.278,-12.126 -11.674,-28.495 -20.991,-36.579l-21.36,-18.506c-9.317,-8.073 -14.855,-7.889 -12.366,0.413c2.496,8.307 -2.372,22.286 -10.864,31.23l-35.584,37.454c-8.491,8.938 -6.437,20.662 4.595,26.172l63.57,31.788c11.032,5.516 12.573,16.715 3.451,25.005l-123.508,112.281c-9.127,8.301 -26.395,13.432 -38.571,11.467l-179.346,-28.925c-12.176,-1.965 -28.595,-11.115 -36.667,-20.432l-93.316,-107.669c-8.078,-9.324 -8.486,-24.765 -0.915,-34.502l42.551,-54.711c7.57,-9.736 7.548,-25.502 -0.056,-35.216l-72.486,-92.623c-7.598,-9.714 -13.371,-23.866 -12.885,-31.621c0.486,-7.749 -9.083,-13.125 -21.365,-12.014l-3.769,0.341c-12.282,1.122 -23.877,-7.838 -25.909,-20.009l-21.097,-126.6c-2.032,-12.165 4.734,-27.434 15.112,-34.105l53.159,-34.178c10.373,-6.665 19.406,-22.051 20.176,-34.361l1.005,-16.045c0.771,-12.31 9.072,-28.69 18.546,-36.59l155.267,-129.391c9.48,-7.894 10.736,-21.237 2.82,-29.801c-7.922,-8.569 -6.242,-21.387 3.327,-29.17c32.938,-26.758 102.321,-89.647 123.725,-159.889c28.26,-92.741 89.838,-139.552 177.431,-163.089c11.914,-3.199 23.66,-15.057 26.077,-27.149l1.837,-9.184c2.411,-12.092 14.213,-20.109 26.345,-17.904l44.5,8.09c12.131,2.205 26.228,-0.704 31.486,-6.499c5.254,-5.8 7.091,-20.198 4.098,-32.162l-7.799,-31.213c-2.992,-11.964 2.507,-27.758 12.282,-35.277l91.63,-70.488c9.775,-7.52 25.29,-7.107 34.658,0.921l16.513,14.158c9.368,8.028 26.652,12.098 38.616,9.1" style="fill:#fffde6;"/><g><path d="M2589.78,3520.35c-6.041,-1.044 -11.339,-11.886 -11.836,-24.213l-1.384,-34.54c-0.497,-12.327 -9.982,-26.49 -21.193,-31.632l-140.791,-64.659c-11.21,-5.148 -20.773,-18.451 -21.365,-29.717c-0.592,-11.255 2.35,-21.74 6.582,-23.403l7.648,-3.015c1.491,-0.592 17.759,-7.179 36.93,-21.594c9.859,-7.414 19.116,-4.639 23.403,6.923c20.467,55.191 61.544,77.203 67.903,80.335l66.156,34.837c10.914,5.744 17.758,20.198 15.285,32.279l-11.93,58.413c-2.473,12.081 -9.368,21.03 -15.408,19.986m-263.155,113.43l0.922,3.685c2.986,11.964 -0.012,21.661 -6.705,21.661c-6.688,-0 -14.694,-9.658 -17.871,-21.578l-3.271,-12.248c-3.177,-11.919 -0.849,-30.292 5.197,-41.044l25.636,-45.567c6.047,-10.752 9.848,-29.399 8.486,-41.658l-2.674,-24.051c-1.368,-12.26 -5.119,-23.352 -8.385,-24.782l-5.918,-2.584c-21.008,-9.173 -54.823,-25.798 -64.23,-34.022c-34.244,-29.974 -35.416,-62.839 -35.45,-63.967l0,-8.72c0,-4.812 -9.697,-11.143 -21.655,-14.13l-16.263,-4.07c-11.969,-2.992 -15.581,-13.387 -9.223,-23.956c6.783,-11.26 13.042,-23.788 18.624,-37.75c22.326,-55.828 51.161,-65.614 87.666,-78.013c5.979,-2.027 11.959,-4.065 17.893,-6.292c-0,-0 4.684,-1.753 10.456,-3.919c5.779,-2.166 6.945,-13.282 2.613,-24.827c-4.326,-11.55 -12.516,-19.154 -18.289,-16.988l-10.456,3.919c-5.505,2.06 -11.043,3.936 -16.576,5.817c-39.754,13.499 -84.807,28.796 -114.775,103.717c-55.979,139.937 -192.907,101.762 -199.037,99.959c0,-0 -0.463,-0.14 -1.044,-0.313c-0.569,-0.173 -4.873,-9.591 -7.854,-21.56c-16.263,-65.347 23.743,-90.145 29.052,-93.098c0,-0 2.618,-1.374 5.845,-3.065c3.227,-1.698 5.907,-6.03 5.979,-9.675l0.123,-6.599c2.987,-154.547 -105.173,-206.958 -109.779,-209.113c0,-0 -4.5,-2.099 -10.049,-4.695c-5.549,-2.602 -14.286,4.276 -19.517,15.363c-5.226,11.088 -4.991,22.231 0.525,24.905l9.987,4.824c3.199,1.546 71.51,35.74 82.692,134.527c1.384,12.26 -6.487,28.455 -14.51,37.818c-21.103,24.614 -42.535,69.388 -17.77,139.328c4.115,11.629 2.044,28.456 -6.66,37.187c-41.34,41.441 -92.132,63.939 -130.949,81.14c-43.596,19.311 -84.774,37.555 -75.752,77.086c7.118,31.174 32.994,50.798 57.725,62.728c11.11,5.36 15.716,17.201 9.636,27.931l-0.229,0.407c-6.079,10.73 -19.841,14.744 -30.733,8.966l-28.059,-14.895c-10.897,-5.778 -26.691,-17.742 -33.256,-28.181c-11.489,-18.262 -25.312,-49.659 -25.24,-94.969c0.023,-12.332 10.072,-26.774 20.774,-32.899c113.251,-64.799 111.733,-132.322 111.113,-140.378c0,0 -0.519,-6.482 -1.155,-14.476c-0.642,-7.989 -7.303,-12.321 -14.873,-9.658l-13.717,4.807c-0.301,0.106 -30.297,10.395 -65.541,4.767c-35.791,-5.733 -64.319,-25.636 -85.143,-59.283c-6.487,-10.49 -11.562,-28.416 -12.784,-39.224c-1.228,-10.803 5.186,-26.284 14.23,-34.669c31.264,-28.975 66.396,-63.236 87.856,-89.492c14.242,-17.412 20.053,-37.538 16.815,-58.189c-7.274,-46.331 -57.312,-79.894 -62.99,-83.574c0,0 -3.216,-2.076 -7.179,-4.644c-3.964,-2.563 -14.61,2.048 -23.777,10.294l-20.584,18.524c-9.172,8.246 -14.281,18.512 -11.411,22.934l5.192,8c7.598,11.701 7.408,20.974 -0.625,31.012c-10.691,13.348 -43.931,35.009 -75.122,53.17c-10.657,6.203 -19.567,10.775 -19.752,10.479c-0.184,-0.302 -2.489,0.781 -5.152,2.423c-2.658,1.636 0.485,-5.516 7.023,-15.972l86.454,-138.335c6.538,-10.457 21.248,-22.343 33.072,-25.854c44.495,-13.214 135.611,-32.933 220.982,-6.163c50.949,15.977 86.55,34.132 117.958,50.155c46.594,23.755 83.351,42.535 138.67,36.913c84.026,-8.547 116.317,-21.795 119.722,-23.28c0,0 1.748,-0.759 3.903,-1.697c2.149,-0.944 4.695,-3.428 5.677,-5.561l1.781,-3.857c0.201,-0.441 20.857,-35.043 102.165,-19.395l17.066,4.656c2.685,0.732 5.499,1.441 8.419,2.111c4.667,1.077 12.807,3.12 18.093,4.862c3.116,1.033 6.287,2.116 9.541,3.277c55.443,19.802 110.472,123.407 93.283,211.614c-11.819,60.674 -70.03,84.836 -72.414,85.796c-0,0 -0.313,0.129 -0.704,0.279c-0.39,0.157 -1.06,-6.476 -1.496,-14.805c-0.441,-8.33 -10.78,-14.56 -23.096,-13.912c-12.315,0.647 -21.767,11.154 -21.125,23.469l4.528,86.126c0.653,12.315 6.721,30.615 13.56,40.876l45.355,68.032c6.844,10.261 6.487,26.657 -0.788,36.612l-72.922,99.797c-7.279,9.954 -10.752,27.729 -7.76,39.693m-856.014,-166.584l-7.319,0.52c-12.299,0.876 -24.117,-8.229 -26.389,-20.355l-7.677,-40.966c-2.278,-12.126 -11.673,-28.5 -20.991,-36.578l-55.839,-48.392c-9.317,-8.078 -17.541,-24.603 -18.361,-36.907l-1.441,-21.622c-0.82,-12.305 7.576,-26.513 18.747,-31.727l36.411,-16.994c11.177,-5.209 21.404,-10.161 22.85,-11.043c1.441,-0.887 2.719,-1.563 2.853,-1.507c0.134,0.061 0.53,-0.184 0.888,-0.542c0.357,-0.357 9.167,-5.873 19.679,-12.326l53.773,-33.005c11.478,-5.974 100.729,-53.053 126.773,-85.567c10.819,-13.516 16.156,-28.545 15.955,-43.886c-0.156,-12.333 -3.863,-21.991 -3.69,-22.147c0.173,-0.156 8.134,6.074 16.034,15.548c6.939,8.324 12.639,17.708 14.091,26.948c0.793,5.086 0.91,12.996 -7.269,23.006c-42.273,51.708 -146.955,141.657 -148.01,142.561c0,0 -3.796,3.255 -8.474,7.264c-4.684,4.014 -1.971,14.861 6.057,24.218c8.028,9.367 18.328,13.7 23.012,9.691l8.475,-7.268c0.323,-0.28 1.217,-1.044 2.568,-2.217c1.418,-1.222 3.176,-0.72 3.93,1.122l1.357,3.333c0.351,0.871 0.714,1.709 1.077,2.54c0.614,1.39 2.233,12.455 3.623,24.71l5.237,46.18c1.39,12.254 -1.798,31.202 -7.118,42.334l-38.901,81.341c-5.32,11.126 -19.606,20.857 -31.911,21.733m-139.58,-371.448c0.815,-12.198 4.974,-18.97 8.754,-14.61c3.936,4.544 5.962,7.827 6.269,8.341c0,-0 2.485,4.343 5.539,9.697c3.064,5.354 14.224,4.729 24.932,-1.385c10.708,-6.118 16.91,-15.419 13.851,-20.773l-5.538,-9.692c-1.385,-2.423 -14.309,-24.145 -42.368,-42.071c-19.578,-12.5 -49.658,-24.916 -90.691,-23.269c-12.327,0.491 -25.502,-7.263 -29.958,-18.764c-30.906,-79.721 -70.716,-140.568 -97.117,-175.951c-7.375,-9.882 -6.482,-24.609 1.842,-33.703c27.233,-29.734 64.481,-79.002 82.653,-141.194c27.177,-93.036 127.605,-108.78 208.303,-121.43c35.283,-5.527 65.754,-10.306 87.158,-21.002l9.988,-4.997c5.516,-2.758 5.594,-13.773 0.184,-24.603c-5.415,-10.831 -4.488,-25.848 2.066,-33.547c6.56,-7.699 13.957,-14.314 16.53,-14.783c2.574,-0.469 2.875,-10.685 0.665,-22.817l-5.081,-27.98c-2.205,-12.132 0.408,-25.268 5.84,-29.349c5.426,-4.07 16.899,-0.301 25.619,8.419l28.271,28.271c8.72,8.715 22.862,8.715 31.582,-0c8.72,-8.726 12.321,-19.266 8.039,-23.543c-4.282,-4.282 1.982,-10.043 13.985,-12.873l71.844,-16.933c12.003,-2.83 31.219,-1.965 42.92,1.937l37.907,12.628l52.852,16.263c11.796,3.634 31.308,5.667 43.585,4.55l0.971,-0.089c12.282,-1.117 24.073,4.097 26.345,11.651c2.261,7.553 -0.564,22.063 -6.314,32.419c-5.75,10.35 -15.487,23.805 -21.734,30.057c-6.247,6.253 -21.292,10.435 -33.625,10.518c-8.569,0.062 -17.864,0.586 -26.724,1.999c-0,-0 -1.53,0.246 -3.411,0.541c-1.882,0.302 -4.528,1.603 -5.912,2.915l-2.507,2.372c-23.403,22.13 -43.613,41.246 -25.988,75.016c0,-0 0.637,1.206 1.407,2.696c0.776,1.485 2.557,3.411 3.981,4.299l2.573,1.608c13.148,8.218 25.848,15.966 37.153,22.772c10.574,6.359 16.308,14.314 12.763,17.853c-3.545,3.551 -15.9,3.261 -27.607,-0.636l-19.043,-6.342c-11.701,-3.902 -29.7,-1.826 -40.201,4.645l-59.853,36.824c-10.507,6.464 -13.784,20.22 -7.313,30.727c6.459,10.501 16.368,16.145 22.124,12.6c5.762,-3.545 18.619,-0.681 28.723,6.387l79.153,55.403c10.099,7.074 20.298,12.478 22.788,12.065l4.489,-0.743c30.119,-4.996 116.791,-14.923 155.759,-0.999c37.415,13.359 61.349,46.727 74.742,72.045c5.772,10.898 2.663,27.573 -5.706,36.634l-18.468,20.003c-8.363,9.061 -18.395,16.408 -22.398,16.408c-4.014,-0 -11.969,-8.821 -17.77,-19.702l-24.396,-45.734c-5.806,-10.886 -20.076,-16.792 -31.872,-13.203l-92.473,28.137c-11.802,3.596 -31.001,3.841 -42.887,0.553l-183.56,-50.775c-11.886,-3.288 -18.066,-15.386 -15.733,-27.495c8.185,-42.407 -6.096,-68.623 -7.173,-70.505c-0,0 -2.474,-4.343 -5.527,-9.703c-3.06,-5.359 -14.22,-4.745 -24.933,1.357c-10.713,6.113 -16.921,15.408 -13.867,20.762l5.526,9.703c0.296,0.519 27.032,54.075 -60.5,139.58c-7.693,6.956 -15.202,13.427 -22.47,19.685c-28.216,24.302 -54.382,46.884 -66.067,79.13c-4.192,11.595 -10.35,13.002 -16.91,2.557c-5.209,-8.302 -10.35,-16.157 -15.029,-23.135c-6.866,-10.245 -10.328,-28.165 -6.347,-39.839c9.853,-28.885 30.007,-71.459 67.668,-94.639c0,0 4.254,-2.618 9.508,-5.85c5.253,-3.233 4.265,-14.365 -2.194,-24.866l-0,-0.005c-6.465,-10.502 -15.961,-16.391 -21.215,-13.165l-9.507,5.857c-77.757,47.844 -95.75,150.974 -96.476,155.334c0,0 -0.346,2.055 -0.764,4.589c-0.425,2.535 0.452,6.281 1.954,8.363l2.718,3.78c23.275,32.29 61.818,92.059 66.178,114.96c8.168,42.881 5.533,74.959 -0.156,97.648c-2.998,11.969 -7.425,21.739 -7.872,22.448c-0.446,0.714 -0.726,1.351 -0.619,1.412c0.106,0.067 -0.659,2.016 -1.826,4.293c-1.161,2.284 -11.411,0.207 -22.778,-4.572l-30.113,-12.684c-11.366,-4.779 -19.919,-18.557 -19.11,-30.761m-153.626,121.498c0,-0 0.302,-2.122 0.676,-4.74c0.374,-2.613 8.123,2.049 18.674,8.435c21.086,12.779 45.522,19.786 67.73,23.012c12.204,1.776 22.738,9.759 23.369,19.239c0.631,9.474 -8.826,16.307 -21.008,14.37c-47.989,-7.632 -70.147,-22.705 -80.33,-35.2c-9.714,-11.919 -9.317,-22.844 -9.111,-25.116m-335.64,-56.392c-6.789,0.62 -13.399,-5.521 -14.767,-13.711c-1.368,-8.19 4.813,-19.523 13.806,-25.301c8.994,-5.778 15.654,-0.486 14.89,11.819l-0.24,3.79c-0.765,12.31 -6.895,22.789 -13.689,23.403m1713.54,173.864c-2.166,-1.05 -53.237,-26.753 -54.398,-105.883c-0,0 -0.05,-3.327 -0.106,-7.425c-0.062,-4.097 1.848,-12.572 3.684,-19.104c1.083,-3.852 2.038,-7.838 2.831,-11.941c12.41,-63.661 -7.587,-148.574 -50.446,-205.842c-7.386,-9.876 -4.349,-18.217 7.715,-20.773c53.064,-11.238 105.051,-41.022 132.552,-104.928c-0,-0 0.72,-1.664 1.602,-3.713c0.888,-2.054 1.089,-5.46 0.452,-7.598l-1.156,-3.885c-1.981,-6.661 -20.672,-65.609 -66.122,-83.848c-15.531,-6.241 -40.547,-9.993 -71.431,7.626c-20.757,11.83 -39.453,20.601 -56.492,26.842c-11.584,4.232 -21.231,6.655 -21.17,6.571c0.062,-0.073 -3.829,-3.216 -8.692,-7.006l-8.809,-6.862c-66.245,-51.618 -122.81,-25.753 -143.472,-4.857c0,0 -4.594,4.645 -10.255,10.373c-5.667,5.734 -4.578,13.6 2.434,17.569l12.695,7.191c60.037,34.01 129.235,61.176 255.886,-11.026c12.488,-7.124 23.146,-8.76 32.603,-5.002c11.182,4.455 20.567,15.972 27.5,27.645c6.303,10.602 5.55,29.137 -1.663,39.141c-22.979,31.855 -58.429,50.384 -105.788,55.202c-19.874,2.027 -38.755,1.251 -53.996,-0.335c-12.265,-1.284 -29.025,-5.225 -37.673,-7.374c-5.398,-1.346 -10.646,-2.518 -15.726,-3.529c-0,0 -0.787,-0.217 -1.753,-0.474c-0.966,-0.268 -1.77,-0.419 -1.792,-0.335c-0.023,0.078 -9.859,-1.815 -22.125,-3.127c-54.811,-5.845 -87.66,8.481 -106.312,22.996c-9.731,7.57 -25.279,18.741 -37.304,21.46c-17.061,3.858 -42.82,8.48 -79.264,12.187c-42.205,4.31 -70.7,-10.261 -113.854,-32.268c-31.342,-15.989 -70.36,-35.886 -124.892,-52.981c-133.902,-41.987 -273.181,14.404 -279.043,16.827c0,-0 -1.479,0.608 -3.305,1.368c-1.831,0.753 -8.608,9.842 -15.146,20.298l-48.062,76.897c-6.537,10.457 -15.564,9.631 -18.813,-2.266c-15.068,-55.175 7.72,-74.854 52.935,-113.799c7.565,-6.515 15.392,-13.254 23.598,-20.684l0.609,-0.564c15.163,-14.789 27.506,-29.008 37.533,-42.569c7.336,-9.92 22.169,-15.804 34.06,-12.522l203.888,56.397c11.885,3.289 31.09,3.043 42.886,-0.552l69.751,-21.22c11.797,-3.596 26.066,2.316 31.872,13.197l19.719,36.98c5.8,10.881 20.505,19.702 32.837,19.702l16.207,-0c12.332,-0 29.114,-7.347 37.483,-16.408l49.535,-53.667c8.363,-9.061 14.354,-19.126 13.365,-22.482l-1.786,-6.068c-1.234,-4.187 -31.107,-102.801 -116.222,-133.188c-40.357,-14.426 -107.183,-9.864 -146.826,-5.298c-12.254,1.407 -30.337,-2.852 -40.442,-9.926l-48.491,-33.943c-10.105,-7.073 -14.303,-15.263 -9.374,-18.295c4.93,-3.031 18.407,-2.328 30.108,1.569l25.441,8.486c11.707,3.897 28.26,-0.011 36.98,-8.732l41.926,-41.92c8.72,-8.715 10.111,-19.038 3.099,-23.046l-12.696,-7.246c-0.284,-0.173 -23.263,-13.315 -53.471,-31.666c-10.546,-6.409 -16.531,-14.805 -13.092,-18.345c3.445,-3.539 15.492,-7.179 26.775,-6.866c11.439,0.318 20.249,1.451 20.388,1.473c0,0 2.446,0.324 5.466,0.732c3.02,0.396 12.539,-6.348 21.259,-15.068l10.736,-10.736c8.72,-8.72 20.645,-24.53 26.635,-35.311l11.327,-20.388c5.996,-10.786 7.973,-29.097 4.428,-40.91l-11.272,-37.567c-3.551,-11.813 -16.38,-20.483 -28.662,-19.366l-28.533,2.59c-12.277,1.122 -31.794,-0.915 -43.585,-4.539l-43.947,-13.521l-49.441,-16.48c-11.702,-3.897 -30.917,-4.768 -42.92,-1.937l-111.069,26.183c-12.009,2.83 -28.807,-1.949 -37.533,-10.669l-3.02,-3.02c-8.72,-8.726 -23.788,-9.792 -33.653,-2.395l-37.014,27.757c-9.864,7.397 -16.072,23.236 -13.867,35.361l4.851,26.686c2.205,12.137 -2.484,29.583 -10.484,38.973l-22.465,26.379c-7.995,9.384 -24.319,15.207 -36.45,13.002l-24.603,-4.478c-12.137,-2.205 -23.453,4.148 -25.279,14.192c-1.825,10.049 -13.147,20.02 -25.167,22.783c-73.006,16.771 -147.814,49.915 -174.204,140.267c-25.932,88.749 -99.635,149.891 -100.356,150.471c0,0 -4.12,3.361 -9.194,7.504c-5.081,4.142 -5.6,11.411 -1.156,16.234l8.039,8.732c0.838,0.91 84.467,92.779 129.754,233.978c0,0 1.43,4.461 3.199,9.954c1.765,5.499 7.732,8.827 13.338,7.425l10.149,-2.534c17.82,-4.461 33.491,-5.7 47.18,-4.818c12.304,0.787 21.354,13.482 20.533,25.787l-3.456,51.791c-0.82,12.304 7.733,26.166 19.099,30.945l34.513,14.538c11.372,4.778 11.522,12.89 0.346,18.104l-7.917,3.696c-11.176,5.22 -22.52,9.524 -25.329,9.63l-5.091,0.185c-0.285,-0.011 -28.472,0.915 -56.771,-8.185c-24.324,-7.815 -40.436,-19.958 -48.721,-36.846c-5.432,-11.065 -15.994,-21.505 -28.226,-21.666c-12.232,-0.168 -23.559,9.596 -25.307,21.811l-7.564,52.964c-0.96,5.823 -3.824,32.084 16.876,58.982c1.798,2.333 3.724,4.594 5.773,6.783c3.366,3.601 9.228,15.827 12.773,27.646l19.724,65.748c3.545,11.807 -0.469,28.639 -8.966,37.577l-83.389,87.783c-8.497,8.944 -6.437,20.662 4.594,26.178l54.795,27.4c11.032,5.516 13.895,15.514 6.398,22.331c-7.498,6.811 -23.448,10.747 -35.624,8.787l-104.202,-16.81c-12.17,-1.959 -28.589,-11.109 -36.673,-20.427l-23.419,-27.032c-8.079,-9.317 -8.486,-24.765 -0.916,-34.501l41.776,-53.706c7.57,-9.731 13.231,-27.612 12.65,-39.928l-4.723,-99.027c-0.586,-12.315 -11.048,-21.828 -23.364,-21.242l-0.005,0c-12.316,0.592 -21.829,11.054 -21.243,23.369l1.915,40.135c0.587,12.321 -5.102,14.437 -12.7,4.723l-48.783,-62.332c-7.603,-9.719 -13.141,-27.567 -12.371,-39.877l12.243,-195.804c0.765,-12.31 9.072,-28.69 18.546,-36.584l136.984,-114.161c9.474,-7.894 10.758,-21.98 2.858,-31.454c-7.894,-9.468 -21.973,-10.752 -31.447,-2.858l-151.773,126.483c-9.474,7.894 -17.775,24.268 -18.546,36.578l-1.217,19.467c-0.77,12.31 -9.803,27.696 -20.176,34.362l-47.336,30.431c-10.373,6.672 -17.145,21.941 -15.113,34.105l9.245,55.504c2.033,12.165 13.628,21.12 25.91,20.009l14.537,-1.323c12.288,-1.117 21.617,7.955 20.846,20.271l-1.189,19.126c-0.776,12.31 4.768,30.164 12.366,39.878l83.691,106.943c7.598,9.708 7.626,25.48 0.05,35.216l-41.407,53.237c-7.57,9.731 -7.157,25.184 0.916,34.501l58.071,67.005c8.079,9.312 24.498,18.462 36.674,20.427l141.45,22.816c12.176,1.96 29.443,-3.176 38.571,-11.466l58.256,-52.958c9.128,-8.296 7.581,-19.495 -3.45,-25.011l-59.149,-29.578c-11.032,-5.515 -13.086,-17.234 -4.595,-26.177l59.691,-62.823c8.497,-8.949 12.511,-25.77 8.966,-37.583l-14.214,-47.392c-3.545,-11.813 3.093,-18.261 15.124,-15.537c9.446,2.139 19.495,3.908 30.13,5.315c12.226,1.619 29.644,9.011 38.828,17.245l58.831,52.757c9.183,8.24 18.467,24.737 20.74,36.863l12.148,64.81c2.277,12.126 14.091,21.237 26.389,20.361l72.961,-5.209c12.305,-0.877 26.591,-10.607 31.911,-21.739l55.638,-116.339c5.32,-11.132 9.061,-25.24 8.346,-31.526c-0.714,-6.281 6.275,-4.757 16.726,1.786c29.444,18.446 60.567,24.118 86.667,24.503c12.326,0.179 17.412,7.877 9.53,17.362c-16.414,19.741 -44.886,43.68 -94.282,67.39c0,-0 -2.406,1.155 -5.376,2.579c-2.97,1.424 -5.756,5.226 -6.225,8.491l-0.843,5.907c-17.63,123.485 49.446,185.096 52.31,187.659c0,-0 0.453,0.402 1.011,0.904c0.558,0.502 9.842,5.594 20.734,11.372l71.66,38.046c10.898,5.779 24.648,1.765 30.728,-8.971l51.199,-90.474c6.074,-10.736 4.098,-20.712 -4.41,-22.281l-15.414,-2.847c-12.388,-2.289 -42.446,-11.015 -59.909,-26.334c-9.267,-8.134 -4.829,-24.888 6.147,-30.504c9.764,-5.002 21.644,-10.261 31.654,-14.699c46.214,-20.478 107.881,-47.839 157.015,-103.828c8.134,-9.268 23.481,-15.671 35.205,-14.7c6.515,0.542 13.65,0.882 21.265,0.882c31.285,-0.005 70.515,-5.822 107.239,-27.679c10.601,-6.297 28.142,-10.138 40.106,-7.146l10.032,2.507c11.959,2.992 23.632,15.285 28.188,26.741c6.989,17.563 19.489,38.661 41.854,58.234c9.49,8.307 27.511,18.25 43.779,26.384c11.032,5.51 20.852,16.056 21.729,23.967c0.882,7.905 -3.311,23.028 -9.357,33.775l-27.501,48.883c-6.046,10.752 -8.368,29.125 -5.186,41.044l16.787,62.962c3.182,11.92 15.755,21.578 28.087,21.578l71.091,-0c12.332,-0 19.913,-9.697 16.915,-21.661l-9.719,-38.879c-2.992,-11.969 0.48,-29.739 7.76,-39.698l78.985,-108.083c7.274,-9.954 7.631,-26.35 0.787,-36.611l-9.106,-13.656c-6.844,-10.266 -3.305,-14.409 7.906,-9.261l50.479,23.179c11.21,5.147 20.695,19.305 21.192,31.632l1.736,43.233c0.491,12.327 10.741,24.022 22.895,26.127l56.14,9.731c12.148,2.105 24.006,-5.985 26.474,-18.066l27.316,-133.724c2.462,-12.081 -4.383,-26.534 -15.297,-32.279l-96.129,-50.624l-0.86,-0.43Z" style="fill:#aba07f;"/><path d="M1742.35,2351.51c-2.975,-2.976 -15.386,-5.387 -27.718,-5.387l-25.335,-0c-12.332,-0 -18.914,9.401 -14.699,20.985l6.275,17.256c4.215,11.59 15.369,14.661 24.916,6.845l24.659,-20.176c9.546,-7.805 14.872,-16.553 11.902,-19.523" style="fill:#aba07f;"/></g><g><path d="M815.64,1355.92l35.009,17.374c5.862,2.914 10.072,15.749 10.468,35.132c0.117,6.164 -4.662,8.938 -10.183,6.197l-27.975,-13.884c-5.527,-2.741 -9.736,-9.96 -9.882,-16.123c-0.228,-9.457 -1.306,-17.413 -2.97,-23.492c-1.624,-5.946 0.012,-7.939 5.533,-5.204" style="fill:#aba07f;fill-rule:nonzero;"/><path d="M768.841,1548.39l27.651,13.722c5.527,2.741 7.135,9.061 3.4,13.963c-10.931,14.28 -22.035,25.993 -32.413,35.059c-4.634,4.065 -13.097,4.863 -18.624,2.127l-28.048,-13.917c-5.533,-2.747 -6.007,-7.967 -1.329,-11.998c10.479,-9.055 21.695,-20.717 32.71,-34.959c3.773,-4.879 11.132,-6.738 16.653,-3.997" style="fill:#aba07f;fill-rule:nonzero;"/><path d="M815.863,1447.08l27.719,13.761c5.521,2.736 8.714,9.793 6.721,15.643c-4.578,13.455 -11.729,31.001 -16.318,41.938c-2.395,5.683 -8.877,8.039 -14.404,5.304l-27.539,-13.673c-5.522,-2.746 -7.995,-9.546 -5.617,-15.235c4.567,-10.953 11.685,-28.522 16.213,-42.01c1.959,-5.845 7.704,-8.464 13.225,-5.728" style="fill:#aba07f;fill-rule:nonzero;"/><path d="M757.206,1488.97c-33.295,67.094 -77.773,97.274 -89.748,91.334c-11.969,-5.94 -10.657,-62.772 20.556,-125.668c31.213,-62.9 75.685,-98.323 87.655,-92.383c11.975,5.94 14.833,59.618 -18.463,126.717" style="fill:#aba07f;fill-rule:nonzero;"/></g><g><path d="M2678.78,1614.13l35.143,-17.094c5.89,-2.859 10.2,-15.66 10.753,-35.043c0.167,-6.158 -4.595,-8.966 -10.127,-6.281l-28.093,13.661c-5.544,2.702 -9.814,9.887 -10.01,16.039c-0.301,9.463 -1.446,17.407 -3.16,23.476c-1.674,5.923 -0.05,7.933 5.494,5.242" style="fill:#aba07f;fill-rule:nonzero;"/><path d="M2633.53,1421.29l27.768,-13.499c5.544,-2.697 7.208,-9.005 3.506,-13.935c-10.813,-14.364 -21.823,-26.172 -32.123,-35.322c-4.611,-4.098 -13.063,-4.968 -18.613,-2.272l-28.153,13.695c-5.555,2.696 -6.069,7.916 -1.43,11.986c10.401,9.127 21.527,20.885 32.425,35.221c3.735,4.907 11.082,6.822 16.62,4.126" style="fill:#aba07f;fill-rule:nonzero;"/><path d="M2679.73,1522.98l27.83,-13.538c5.544,-2.691 8.793,-9.72 6.85,-15.582c-4.472,-13.499 -11.478,-31.096 -15.983,-42.071c-2.345,-5.7 -8.81,-8.106 -14.359,-5.416l-27.646,13.449c-5.549,2.697 -8.073,9.48 -5.745,15.185c4.478,10.993 11.456,28.618 15.878,42.139c1.909,5.862 7.631,8.525 13.175,5.834" style="fill:#aba07f;fill-rule:nonzero;"/><path d="M2621.41,1480.63c-32.743,-67.362 -76.986,-97.911 -89.006,-92.054c-12.02,5.839 -11.16,62.672 19.545,125.829c30.711,63.147 74.893,98.927 86.901,93.087c12.026,-5.851 15.319,-59.507 -17.44,-126.862" style="fill:#aba07f;fill-rule:nonzero;"/></g><g><path d="M2871.76,2771.32l9.921,-37.801c1.664,-6.331 -5.242,-17.937 -19.584,-30.978c-4.573,-4.148 -9.798,-2.368 -11.367,3.595l-7.927,30.208c-1.569,5.968 1.105,13.884 5.649,18.049c6.979,6.381 12.26,12.422 15.749,17.675c3.411,5.136 5.991,5.209 7.559,-0.748" style="fill:#aba07f;fill-rule:nonzero;"/><path d="M2695.96,2680.05l7.833,-29.862c1.568,-5.962 -2.133,-11.333 -8.285,-11.735c-17.943,-1.155 -34.077,-0.491 -47.727,1.368c-6.108,0.826 -12.277,6.677 -13.845,12.645l-7.95,30.281c-1.563,5.973 2.054,9.759 8.167,8.888c13.706,-1.949 29.868,-2.73 47.845,-1.664c6.157,0.363 12.393,-3.969 13.962,-9.921" style="fill:#aba07f;fill-rule:nonzero;"/><path d="M2803.21,2711.22l7.86,-29.929c1.563,-5.968 -1.658,-13.008 -7.363,-15.347c-13.153,-5.399 -31.08,-11.551 -42.34,-15.28c-5.851,-1.932 -11.891,1.401 -13.454,7.375l-7.811,29.733c-1.563,5.963 1.938,12.305 7.788,14.259c11.255,3.751 29.176,9.943 42.312,15.391c5.694,2.367 11.445,-0.24 13.008,-6.202" style="fill:#aba07f;fill-rule:nonzero;"/><path d="M2733.09,2727.88c-72.448,-19.015 -124.429,-5.348 -127.823,7.587c-3.394,12.924 40.285,49.29 108.205,67.127c67.92,17.831 123.848,7.604 127.236,-5.315c3.4,-12.935 -35.165,-50.378 -107.618,-69.399" style="fill:#aba07f;fill-rule:nonzero;"/></g><g><path d="M502.987,2760.75l13.198,36.779c2.216,6.163 14.481,11.83 33.68,14.47c6.113,0.832 9.418,-3.595 7.336,-9.395l-10.551,-29.399c-2.083,-5.806 -8.765,-10.825 -14.867,-11.679c-9.374,-1.323 -17.145,-3.316 -22.99,-5.672c-5.711,-2.306 -7.888,-0.905 -5.806,4.896" style="fill:#aba07f;fill-rule:nonzero;"/><path d="M699.58,2736.56l10.428,29.052c2.083,5.806 8.173,8.14 13.477,4.991c15.447,-9.2 28.371,-18.869 38.577,-28.126c4.572,-4.142 6.353,-12.455 4.265,-18.261l-10.574,-29.466c-2.088,-5.811 -7.218,-6.889 -11.763,-2.713c-10.199,9.357 -23.084,19.149 -38.515,28.439c-5.281,3.182 -7.978,10.283 -5.895,16.084" style="fill:#aba07f;fill-rule:nonzero;"/><path d="M593.502,2771.53l10.457,29.125c2.077,5.8 8.72,9.792 14.749,8.486c13.902,-2.987 32.157,-8.056 43.557,-11.35c5.918,-1.719 9.011,-7.883 6.928,-13.689l-10.389,-28.941c-2.083,-5.806 -8.553,-9.044 -14.476,-7.347c-11.411,3.272 -29.689,8.302 -43.607,11.244c-6.03,1.267 -9.301,6.671 -7.219,12.472" style="fill:#aba07f;fill-rule:nonzero;"/><path d="M641.904,2718.12c70.494,-25.295 105.631,-65.977 101.115,-78.56c-4.516,-12.578 -61.114,-17.859 -127.209,5.862c-66.088,23.721 -106.424,63.783 -101.907,76.355c4.511,12.589 57.502,21.644 128.001,-3.657" style="fill:#aba07f;fill-rule:nonzero;"/></g><path d="M518.208,2947.11l407.097,-290.053l-25.916,-36.374l-407.097,290.053l25.916,36.374Z" style="fill:#aba07f;"/><path d="M2889.44,2909.16l-416.238,-293.254l-25.723,36.51l416.238,293.254l25.723,-36.51Z" style="fill:#aba07f;"/><g><path d="M741.094,1050.87l88.593,59.38l-143.835,23.039l-18.978,28.314l158.044,105.93l27.319,-40.759l-89.93,-60.275l145.171,-22.144l18.978,-28.314l-158.044,-105.93l-27.318,40.759Z" style="fill:#aba07f;fill-rule:nonzero;"/><path d="M1010.29,1024.51c45.491,-46.614 44.027,-101.131 0.725,-143.087c-43.686,-42.33 -97.041,-42.523 -142.835,4.402c-45.946,47.08 -44.754,100.725 -1.22,143.21c43.343,42.298 97.384,42.556 143.33,-4.525Zm-33.41,-32.908c-23.504,24.084 -52.253,25.151 -75.65,2.317c-23.397,-22.833 -23.103,-50.759 0.663,-75.497c22.706,-23.649 51.454,-24.716 74.852,-1.883c23.397,22.834 22.88,51.756 0.135,75.063Z" style="fill:#aba07f;fill-rule:nonzero;"/><path d="M1240.48,837.304c54.592,-30.486 68.39,-63.666 48.009,-100.164c-16.071,-28.778 -41.354,-37.985 -79.081,-21.828l-47.218,20.536c-9.811,4.251 -15.81,3.304 -19.861,-3.948c-5.748,-10.295 1.306,-20.373 27.844,-35.192c20.283,-11.327 43.342,-19.907 67.329,-25.935l-13.068,-37.207c-25.327,5.856 -50.484,14.687 -75.127,28.448c-52.317,29.216 -68.782,62.964 -48.27,99.697c15.809,28.309 40.393,37.6 81.722,19.432l42.087,-18.592c11.079,-4.652 17.457,-3.917 22.161,4.506c5.487,9.826 0.851,19.781 -26.445,35.024c-22.558,12.597 -47.905,21.533 -71.761,27.796l12.938,36.972c26.535,-5.917 52.203,-14.726 78.741,-29.545Z" style="fill:#aba07f;fill-rule:nonzero;"/><path d="M1389.67,561.63l-45.981,13.708l-27.846,190.058l4.593,15.408l44.734,-13.336l4.533,-32.669l84.057,-25.058l21.266,24.978l45.15,-13.459l-5.13,-17.206l-125.376,-142.424Zm-15.125,136.213l9.452,-69.369l45.476,52.994l-54.928,16.375Z" style="fill:#aba07f;fill-rule:nonzero;"/><path d="M1688.5,562.279l-2.769,-46.277l-159.508,9.545l11.365,189.921l49.196,-2.944l-3.81,-63.664l100.776,-6.03l-2.353,-39.322l-100.776,6.031l-2.433,-40.659l110.312,-6.601Z" style="fill:#aba07f;fill-rule:nonzero;"/><path d="M1903.07,583.42l6.855,-44.494l-162.65,-25.06l-28.972,188.041l162.65,25.06l6.896,-44.759l-113.941,-17.555l5.264,-34.166l104.714,16.134l4.775,-30.987l-104.714,-16.134l5.182,-33.635l113.941,17.555Z" style="fill:#aba07f;fill-rule:nonzero;"/><path d="M2184.24,739.073c17.627,-1.303 32.244,-10.86 41.124,-27.686c12.132,-22.989 7.388,-46.096 -21.414,-61.296l-119.816,-63.231l-88.799,168.266l118.663,62.623c31.106,16.416 58.21,7.389 74.094,-22.71c9.88,-18.722 8.86,-38.653 -3.852,-55.966Zm-15.269,-58.053c8.064,4.256 10.372,12.443 5.619,21.449c-4.502,8.531 -12.112,11.787 -19.566,11.49l-64.708,-34.149l16.635,-31.52l62.02,32.73Zm-45.339,92.425l-64.708,-34.149l16.884,-31.994l64.708,34.148c9.793,5.168 11.792,14.404 6.665,24.121c-5.128,9.717 -13.757,13.042 -23.549,7.874Z" style="fill:#aba07f;fill-rule:nonzero;"/><path d="M2403.22,845.045l28.436,-34.902l-127.587,-103.946l-120.173,147.504l127.587,103.946l28.604,-35.11l-89.378,-72.817l21.835,-26.8l82.14,66.92l19.803,-24.307l-82.14,-66.92l21.496,-26.385l89.377,72.817Z" style="fill:#aba07f;fill-rule:nonzero;"/><path d="M2590.88,980.434l-120.755,-139.264l-37.051,32.126l44.377,51.179l-106.697,92.516l32.145,37.071l106.696,-92.516l44.235,51.014l37.05,-32.126Z" style="fill:#aba07f;fill-rule:nonzero;"/><path d="M2501.82,1192.27c32.812,53.227 66.556,65.582 102.141,43.645c28.058,-17.296 36.166,-42.953 18.398,-79.948l-22.554,-46.289c-4.67,-9.618 -3.982,-15.653 3.089,-20.012c10.037,-6.187 20.41,0.426 36.36,26.3c12.19,19.776 21.757,42.444 28.814,66.148l36.608,-14.66c-6.943,-25.051 -16.85,-49.804 -31.661,-73.83c-31.444,-51.009 -65.871,-66.004 -101.685,-43.927c-27.602,17.015 -35.823,41.977 -15.89,82.484l20.389,41.246c5.126,10.868 4.666,17.273 -3.546,22.335c-9.58,5.906 -19.726,1.703 -36.132,-24.91c-13.557,-21.993 -23.579,-46.931 -30.864,-70.495l-36.38,14.519c7.056,26.256 16.963,51.52 32.913,77.394Z" style="fill:#aba07f;fill-rule:nonzero;"/></g></g><g><g id="radial---tip" serif:id="radial - tip"></g><g id="radial---tip1" serif:id="radial - tip"></g><g id="radial---tip2" serif:id="radial - tip"></g><g id="radial---tip3" serif:id="radial - tip"></g><g id="radial---tip4" serif:id="radial - tip"></g><g id="radial---tip5" serif:id="radial - tip"></g><g id="radial---tip6" serif:id="radial - tip"></g><g id="radial---tip7" serif:id="radial - tip"></g></g><g><g id="radial---tip8" serif:id="radial - tip"></g><g id="radial---tip9" serif:id="radial - tip"></g><g id="radial---tip10" serif:id="radial - tip"></g><g id="radial---tip11" serif:id="radial - tip"></g><g id="radial---tip12" serif:id="radial - tip"></g><g id="radial---tip13" serif:id="radial - tip"></g><g id="radial---tip14" serif:id="radial - tip"></g><g id="radial---tip15" serif:id="radial - tip"></g></g><g id="radial---tip21" serif:id="radial - tip2"></g><g><g><g><g id="radial---tip31" serif:id="radial - tip3"></g><g id="radial---tip32" serif:id="radial - tip3"></g></g><g><g id="radial---tip33" serif:id="radial - tip3"></g><g id="radial---tip34" serif:id="radial - tip3"></g></g><g><g id="radial---tip35" serif:id="radial - tip3"></g><g id="radial---tip36" serif:id="radial - tip3"></g></g></g><g><g><g id="radial---tip37" serif:id="radial - tip3"></g><g id="radial---tip38" serif:id="radial - tip3"></g></g><g><g id="radial---tip39" serif:id="radial - tip3"></g><g id="radial---tip310" serif:id="radial - tip3"></g></g><g><g id="radial---tip311" serif:id="radial - tip3"></g><g id="radial---tip312" serif:id="radial - tip3"></g></g></g></g><g><g><g><g><g id="radial---tip22" serif:id="radial - tip2"></g><g id="radial---tip23" serif:id="radial - tip2"></g></g></g><g><g><g id="radial---tip24" serif:id="radial - tip2"></g><g id="radial---tip25" serif:id="radial - tip2"></g></g></g><g><g><g id="radial---tip26" serif:id="radial - tip2"></g><g id="radial---tip27" serif:id="radial - tip2"></g></g></g><g><g><g id="radial---tip28" serif:id="radial - tip2"></g><g id="radial---tip29" serif:id="radial - tip2"></g></g></g></g></g><g><g id="radial---tip16" serif:id="radial - tip"></g><g id="radial---tip17" serif:id="radial - tip"></g></g><g><g id="radial---tip18" serif:id="radial - tip"></g><g id="radial---tip19" serif:id="radial - tip"></g></g><g><g id="radial---tip20" serif:id="radial - tip"></g><g id="radial---tip30" serif:id="radial - tip"></g></g><g><g id="radial---tip40" serif:id="radial - tip"></g><g id="radial---tip41" serif:id="radial - tip"></g></g><g><g id="raddial---retro-slim" serif:id="raddial - retro slim"></g><g id="raddial---retro-slim1" serif:id="raddial - retro slim"></g></g><g><g id="raddial---retro-slim2" serif:id="raddial - retro slim"></g><g id="raddial---retro-slim3" serif:id="raddial - retro slim"></g></g><g><g id="raddial---retro-slim4" serif:id="raddial - retro slim"></g><g id="raddial---retro-slim5" serif:id="raddial - retro slim"></g></g><g><g id="raddial---retro-slim6" serif:id="raddial - retro slim"></g><g id="raddial---retro-slim7" serif:id="raddial - retro slim"></g></g><g><g id="raddial---retro-slim8" serif:id="raddial - retro slim"></g><g id="raddial---retro-slim9" serif:id="raddial - retro slim"></g></g><g><g id="raddial---retro-slim10" serif:id="raddial - retro slim"></g><g id="raddial---retro-slim11" serif:id="raddial - retro slim"></g></g><g><g id="raddial---retro-slim12" serif:id="raddial - retro slim"></g><g id="raddial---retro-slim13" serif:id="raddial - retro slim"></g></g><g><g id="raddial---retro-slim14" serif:id="raddial - retro slim"></g><g id="raddial---retro-slim15" serif:id="raddial - retro slim"></g></g><g><g id="raddial---retro-slim16" serif:id="raddial - retro slim"></g><g id="raddial---retro-slim17" serif:id="raddial - retro slim"></g></g><g><g id="raddial---retro-slim18" serif:id="raddial - retro slim"></g><g id="raddial---retro-slim19" serif:id="raddial - retro slim"></g></g><g><g id="raddial---retro-slim20" serif:id="raddial - retro slim"></g><g id="raddial---retro-slim21" serif:id="raddial - retro slim"></g></g><g><g id="raddial---retro-slim22" serif:id="raddial - retro slim"></g><g id="raddial---retro-slim23" serif:id="raddial - retro slim"></g></g><g><g id="raddial---retro-slim24" serif:id="raddial - retro slim"></g><g id="raddial---retro-slim25" serif:id="raddial - retro slim"></g></g><g><g id="raddial---retro-slim26" serif:id="raddial - retro slim"></g><g id="raddial---retro-slim27" serif:id="raddial - retro slim"></g></g><g><g id="raddial---retro-slim28" serif:id="raddial - retro slim"></g><g id="raddial---retro-slim29" serif:id="raddial - retro slim"></g></g><g><g id="raddial---retro-slim30" serif:id="raddial - retro slim"></g><g id="raddial---retro-slim31" serif:id="raddial - retro slim"></g></g><g><g id="raddial---retro-slim32" serif:id="raddial - retro slim"></g><g id="raddial---retro-slim33" serif:id="raddial - retro slim"></g></g><g><g id="raddial---retro-slim34" serif:id="raddial - retro slim"></g><g id="raddial---retro-slim35" serif:id="raddial - retro slim"></g></g><g id="radial---tip210" serif:id="radial - tip2"></g><g id="radial---tip211" serif:id="radial - tip2"></g></svg>